<svg width="61" height="54" viewBox="0 0 61 54" fill="none" xmlns="http://www.w3.org/2000/svg">
<path d="M28.0198 0.0761719C11.5473 0.0761719 0 11.9423 0 26.5762C0 41.2101 11.5473 53.0762 28.0198 53.0762C44.4924 53.0762 56.0397 41.2101 56.0397 26.5762C56.0397 11.9423 44.4924 0.0761719 28.0198 0.0761719ZM28.0198 48.4181C14.3181 48.4181 4.92527 38.5895 4.92527 26.5762C4.92527 14.5628 14.315 4.73428 28.0198 4.73428C41.7247 4.73428 51.1144 14.5628 51.1144 26.5762C51.1144 38.5895 41.7247 48.4181 28.0198 48.4181Z" fill="white"/>
<path d="M13.7017 31.9661C13.7017 30.2201 15.0871 28.689 18.0136 28.689H19.4769L20.5541 24.393H19.013C17.1668 24.393 16.2421 23.8836 16.2421 22.4261C16.2421 20.6801 17.6276 19.2226 20.5541 19.2226H21.9395L23.1724 14.5645H20.0155C13.5491 14.5645 10.7782 17.9123 10.7782 22.064C10.7782 24.4666 11.9333 25.9948 14.9345 26.4335L14.8567 26.725C10.1618 27.1608 8.3125 30.0729 8.3125 33.7151C8.3125 36.9187 10.2365 38.5205 13.8542 38.5205H20.551L21.7838 33.933H16.4725C14.6263 33.933 13.7017 33.4236 13.7017 31.9661Z" fill="white"/>
<path d="M33.6405 28.689L34.7177 24.393H31.1L32.4855 19.2255H36.1031L37.336 14.5645H25.0197L23.7869 19.2255H27.4824L26.0969 24.393H22.4014L21.3242 28.689H25.0197L22.4014 38.5175H27.4045L30.0228 28.689H33.6405Z" fill="white"/>
<path d="M47.7275 19.5141C47.7275 16.3105 45.8035 14.5645 42.1858 14.5645H39.1846L37.9517 19.2226H39.5675C41.4137 19.2226 42.3384 19.8056 42.3384 21.2601C42.3384 23.0062 40.953 24.3901 38.0264 24.3901H36.5632L35.486 28.686H37.0271C38.8733 28.686 39.7979 29.3426 39.7979 30.7972C39.7979 32.5432 38.4125 33.9271 35.486 33.9271H30.4829L29.25 38.5146H36.0246C42.4909 38.5146 45.2618 35.311 45.2618 31.1623C45.2618 28.7596 44.1068 27.1579 41.1055 26.7927L41.1833 26.4276C45.8782 25.9918 47.7275 23.1505 47.7275 19.5111V19.5141Z" fill="white"/>
<path d="M58.3387 2.0404C57.9892 2.0404 57.7055 2.0404 57.589 2.03558C57.589 1.8184 57.589 1.59158 57.589 1.3551C57.7916 1.35027 58.1665 1.34062 58.3286 1.34062C58.7844 1.34062 58.9465 1.40336 58.9465 1.6881C58.9465 1.92458 58.7794 2.0404 58.3387 2.0404ZM58.8199 2.27206C59.2707 2.21897 59.4683 2.0404 59.4683 1.63501C59.4683 1.0607 59.1086 0.940048 58.5261 0.940048H57.0622C57.0673 1.27305 57.0774 1.5964 57.0774 2.08384C57.0774 2.56163 57.0673 2.88015 57.0622 3.2035H57.6194C57.6093 3.01046 57.5992 2.74502 57.5941 2.43615C57.8271 2.43615 58.1209 2.42649 58.3893 2.42649C58.8098 2.42649 58.8604 2.55197 59.0225 3.10215C59.0428 3.17937 59.0681 3.2035 59.1441 3.2035H59.6506C59.605 3.11663 59.5493 2.95737 59.4834 2.7595C59.3669 2.40719 59.1897 2.31549 58.8199 2.27689V2.27206ZM58.2627 3.69094C57.0572 3.69094 56.4696 3.16972 56.4696 2.07419C56.4696 0.978657 57.0572 0.457436 58.2627 0.457436C59.4683 0.457436 60.0508 0.978657 60.0508 2.07419C60.0508 3.16972 59.4632 3.69094 58.2627 3.69094ZM58.2577 0.0761719C56.7938 0.0761719 56.0391 0.761482 56.0391 2.08384C56.0391 3.39655 56.7786 4.0722 58.2577 4.0722C59.7367 4.0722 60.4762 3.39655 60.4762 2.08384C60.4762 0.761482 59.7266 0.0761719 58.2577 0.0761719Z" fill="white"/>
</svg>
